<?xml version="1.0" encoding="UTF-8"?>
<svg xmlns="http://www.w3.org/2000/svg" width="1182" height="333" viewBox="0 0 1182 333" role="img" aria-label="Gentleman's Club Barbershop Szombathely black logo">
<title>Gentleman's Club Barbershop Szombathely black logo</title>
<g id="gentlemans-club-barbershop-szombathely" fill-rule="nonzero">
<path d="M724.179443359375 280V115Q700.97705078125 85 659.1435546875 55.0Q617.31005859375 25 557.57177734375 5.5Q497.83349609375 -14 420.21435546875 -14Q311.78564453125 -13.202392578125 229.4700927734375 31.892822265625Q147.154541015625 76.988037109375 101.04736328125 158.5892333984375Q54.940185546875 240.1904296875 54.940185546875 350.40478515625Q54.940185546875 460.21435546875 100.844970703125 542.011962890625Q146.749755859375 623.8095703125 229.5712890625 668.90478515625Q312.392822265625 714 422.23828125 714Q477.23828125 714 523.9705810546875 705.5059814453125Q570.702880859375 697.011962890625 609.036376953125 682.6251220703125Q647.369873046875 668.23828125 676.369873046875 650.45263671875L690.298095703125 499.3330078125H681.298095703125Q665.083740234375 560.773681640625 630.0777587890625 600.47607421875Q595.07177734375 640.178466796875 544.5897216796875 660.0653076171875Q494.107666015625 679.9521484375 432.35791015625 679.9521484375Q349.16748046875 679.9521484375 287.798583984375 638.76171875Q226.4296875 597.5712890625 192.8583984375 523.2796630859375Q159.287109375 448.988037109375 159.287109375 348.380859375Q159.287109375 249.59521484375 192.1500244140625 175.8095703125Q225.012939453125 102.02392578125 284.6614990234375 61.4346923828125Q344.31005859375 20.845458984375 424.6669921875 20.0478515625Q466.440673828125 20.0478515625 504.8155517578125 30.8514404296875Q543.1904296875 41.655029296875 575.8509521484375 62.0657958984375Q608.511474609375 82.4765625 630.844482421875 111.095703125L631.844482421875 280Q631.844482421875 325 580.844482421875 325H564.844482421875V335H789.179443359375V325H774.179443359375Q722.179443359375 325 724.179443359375 280Z" fill="#000000" transform="translate(30.796 127.191) scale(0.113 -0.113)"/>
<path d="M224.26318359375 700V0H130.92822265625V700ZM492.2392578125 35.0478515625 500.3349609375 0H221.26318359375V35.0478515625ZM451.26318359375 362.02392578125V327.97607421875H221.26318359375V362.02392578125ZM496.287109375 700V664.9521484375H221.26318359375V700ZM557.287109375 176.16748046875 503.3349609375 0H327.21533203125L363.21533203125 35.0478515625Q415.203369140625 35.0478515625 450.322509765625 52.559814453125Q485.441650390625 70.07177734375 508.465576171875 102.1968994140625Q531.489501953125 134.322021484375 547.3649526742788 176.16748046875ZM451.26318359375 329.97607421875V253.8564453125H441.26318359375V266.83251953125Q441.26318359375 292.297119140625 423.9237060546875 310.035400390625Q406.584228515625 327.773681640625 381.11962890625 327.97607421875V329.97607421875ZM451.26318359375 436.1435546875V360.02392578125H381.11962890625V362.02392578125Q406.584228515625 363.02392578125 424.02490234375 380.8634033203125Q441.465576171875 398.702880859375 441.26318359375 424.16748046875V436.1435546875ZM496.287109375 667.9521484375V575.80859375H486.287109375V591.78466796875Q486.287109375 623.07080078125 465.846435546875 644.011474609375Q445.40576171875 664.9521484375 413.11962890625 665.9521484375V667.9521484375ZM496.287109375 718V689L374.287109375 700Q396.287109375 700 420.787109375 703.0Q445.287109375 706 466.287109375 710.0Q487.287109375 714 496.287109375 718ZM133.92822265625 73V0H53.92822265625V10Q53.92822265625 10 60.42822265625 10.0Q66.92822265625 10 66.92822265625 10Q92.92822265625 10 111.42822265625 28.5Q129.92822265625 47 130.92822265625 73ZM133.92822265625 627H130.92822265625Q130.725830078125 653 111.78591537475586 671.5Q92.84600067138672 690 66.92822265625 690Q66.92822265625 690 60.8270263671875 690.0Q54.725830078125 690 54.725830078125 690L53.92822265625 700H133.92822265625Z" fill="#000000" transform="translate(119.656 127.191) scale(0.113 -0.113)"/>
<path d="M120.130615234375 715 720.155517578125 99.0478515625 729.965087890625 -14 129.940185546875 600.9521484375ZM122.940185546875 71V0H39.940185546875V10Q39.940185546875 10 48.940185546875 10.0Q57.940185546875 10 58.940185546875 10Q83.940185546875 10 101.940185546875 28.0Q119.940185546875 46 119.940185546875 71ZM198.322998046875 71Q198.322998046875 46 216.322998046875 28.0Q234.322998046875 10 259.322998046875 10Q260.322998046875 10 269.322998046875 10.0Q278.322998046875 10 278.322998046875 10V0H195.322998046875V71ZM120.130615234375 715 197.322998046875 626.6171875 198.322998046875 0H119.940185546875V590Q119.940185546875 642.619140625 115.035400390625 678.8095703125Q110.130615234375 715 110.130615234375 715ZM729.155517578125 700V114Q729.155517578125 80.178466796875 731.4591064453125 50.7796630859375Q733.7626953125 21.380859375 736.3638916015625 3.6904296875Q738.965087890625 -14 738.965087890625 -14H729.965087890625L651.772705078125 75.228271484375V700ZM809.155517578125 700V690Q809.155517578125 690 800.155517578125 690.0Q791.155517578125 690 791.155517578125 690Q766.155517578125 690 748.155517578125 672.5Q730.155517578125 655 729.155517578125 629H726.155517578125V700ZM570.772705078125 700H653.772705078125V629H651.772705078125Q650.772705078125 655 633.272705078125 672.5Q615.772705078125 690 589.772705078125 690Q589.772705078125 690 580.772705078125 690.0Q571.772705078125 690 570.772705078125 690Z" fill="#000000" transform="translate(184.125 127.191) scale(0.113 -0.113)"/>
<path d="M364.26318359375 697V0H270.92822265625V697ZM617.21533203125 701V666.9521484375H17.97607421875V701ZM617.21533203125 669.9521484375V576.80859375L607.21533203125 577.80859375V592.78466796875Q607.21533203125 624.868408203125 586.3758544921875 645.4102783203125Q565.536376953125 665.9521484375 534.0478515625 666.9521484375V669.9521484375ZM617.21533203125 719V690L495.21533203125 701Q517.21533203125 701 541.71533203125 704.0Q566.21533203125 707 587.21533203125 711.0Q608.21533203125 715 617.21533203125 719ZM273.92822265625 73V0H193.92822265625V10Q193.92822265625 10 200.42822265625 10.0Q206.92822265625 10 206.92822265625 10Q232.92822265625 10 251.42822265625 28.5Q269.92822265625 47 270.92822265625 73ZM361.26318359375 73H364.26318359375Q365.26318359375 47 383.76318359375 28.5Q402.26318359375 10 428.26318359375 10Q428.26318359375 10 434.76318359375 10.0Q441.26318359375 10 441.26318359375 10V0H361.26318359375ZM101.1435546875 669.9521484375V666.9521484375Q68.857421875 665.9521484375 48.416748046875 645.4102783203125Q27.97607421875 624.868408203125 27.97607421875 592.78466796875V577.80859375L17.97607421875 576.80859375V669.9521484375ZM17.97607421875 719Q27.97607421875 715 48.47607421875 711.0Q68.97607421875 707 93.97607421875 704.0Q118.97607421875 701 139.97607421875 701L17.97607421875 690Z" fill="#000000" transform="translate(277.277 127.191) scale(0.113 -0.113)"/>
<path d="M224.26318359375 700V0H130.92822265625V700ZM492.2392578125 35.0478515625 500.3349609375 0H221.26318359375V35.0478515625ZM557.287109375 176.16748046875 503.3349609375 0H327.21533203125L363.21533203125 35.0478515625Q415.203369140625 35.0478515625 450.322509765625 52.559814453125Q485.441650390625 70.07177734375 508.465576171875 102.1968994140625Q531.489501953125 134.322021484375 547.3649526742788 176.16748046875ZM133.92822265625 73V0H53.92822265625V10Q53.92822265625 10 60.42822265625 10.0Q66.92822265625 10 66.92822265625 10Q92.92822265625 10 111.42822265625 28.5Q129.92822265625 47 130.92822265625 73ZM133.92822265625 627H130.92822265625Q129.92822265625 653 111.42822265625 671.5Q92.92822265625 690 66.92822265625 690Q66.92822265625 690 60.42822265625 690.0Q53.92822265625 690 53.92822265625 690V700H133.92822265625ZM221.26318359375 627V700H301.26318359375V690Q300.26318359375 690 294.26318359375 690.0Q288.26318359375 690 288.26318359375 690Q262.26318359375 690 243.76318359375 671.5Q225.26318359375 653 224.26318359375 627Z" fill="#000000" transform="translate(346.15 127.191) scale(0.113 -0.113)"/>
<path d="M224.26318359375 700V0H130.92822265625V700ZM492.2392578125 35.0478515625 500.3349609375 0H221.26318359375V35.0478515625ZM451.26318359375 362.02392578125V327.97607421875H221.26318359375V362.02392578125ZM496.287109375 700V664.9521484375H221.26318359375V700ZM557.287109375 176.16748046875 503.3349609375 0H327.21533203125L363.21533203125 35.0478515625Q415.203369140625 35.0478515625 450.322509765625 52.559814453125Q485.441650390625 70.07177734375 508.465576171875 102.1968994140625Q531.489501953125 134.322021484375 547.3649526742788 176.16748046875ZM451.26318359375 329.97607421875V253.8564453125H441.26318359375V266.83251953125Q441.26318359375 292.297119140625 423.9237060546875 310.035400390625Q406.584228515625 327.773681640625 381.11962890625 327.97607421875V329.97607421875ZM451.26318359375 436.1435546875V360.02392578125H381.11962890625V362.02392578125Q406.584228515625 363.02392578125 424.02490234375 380.8634033203125Q441.465576171875 398.702880859375 441.26318359375 424.16748046875V436.1435546875ZM496.287109375 667.9521484375V575.80859375H486.287109375V591.78466796875Q486.287109375 623.07080078125 465.846435546875 644.011474609375Q445.40576171875 664.9521484375 413.11962890625 665.9521484375V667.9521484375ZM496.287109375 718V689L374.287109375 700Q396.287109375 700 420.787109375 703.0Q445.287109375 706 466.287109375 710.0Q487.287109375 714 496.287109375 718ZM133.92822265625 73V0H53.92822265625V10Q53.92822265625 10 60.42822265625 10.0Q66.92822265625 10 66.92822265625 10Q92.92822265625 10 111.42822265625 28.5Q129.92822265625 47 130.92822265625 73ZM133.92822265625 627H130.92822265625Q130.725830078125 653 111.78591537475586 671.5Q92.84600067138672 690 66.92822265625 690Q66.92822265625 690 60.8270263671875 690.0Q54.725830078125 690 54.725830078125 690L53.92822265625 700H133.92822265625Z" fill="#000000" transform="translate(408.925 127.191) scale(0.113 -0.113)"/>
<path d="M753.953125 714 761.953125 633.034912109375 495.5712890625 88.8095703125Q495.5712890625 88.8095703125 487.3629150390625 71.607177734375Q479.154541015625 54.40478515625 470.6485595703125 30.297607421875Q462.142578125 6.1904296875 459.9521484375 -16.02392578125H450.154541015625L427.654052734375 55.07177734375ZM117.904296875 73V0H6.904296875V10Q7.904296875 10 15.404296875 10.0Q22.904296875 10 22.904296875 10Q49.904296875 10 70.904296875 26.5Q91.904296875 43 95.904296875 73ZM151.964111328125 57Q151.964111328125 56 151.964111328125 55.0Q151.964111328125 54 151.964111328125 52Q151.964111328125 36 163.464111328125 22.5Q174.964111328125 9 190.964111328125 9H206.16650390625V0H144.964111328125V57ZM173.535400390625 714H183.3330078125L208.392822265625 641.2373046875L146.559326171875 0H87.49951171875ZM183.3330078125 714 484.2861328125 119.73974609375 450.154541015625 -16.02392578125 162.106689453125 560.30712890625ZM762.953125 714 851.989013671875 0H746.463623046875L692.88037109375 557.223388671875L753.953125 714ZM821.584228515625 73H842.78662109375Q847.78662109375 43 868.6854248046875 26.5Q889.584228515625 10 915.78662109375 10Q915.78662109375 10 923.6854248046875 10.0Q931.584228515625 10 931.78662109375 10V0H821.584228515625ZM741.058837890625 57H748.058837890625V0H686.8564453125V9H702.058837890625Q718.8564453125 9 729.9576416015625 22.5Q741.058837890625 36 741.058837890625 52Q741.058837890625 54 741.058837890625 55.0Q741.058837890625 56 741.058837890625 57Z" fill="#000000" transform="translate(473.394 127.191) scale(0.113 -0.113)"/>
<path d="M357.380859375 716.02392578125 663.50048828125 6H547.129638671875L323.820556640625 588.438720703125ZM142.380859375 73Q134.97607421875 53 139.97607421875 39.0Q144.97607421875 25 156.678466796875 17.5Q168.380859375 10 180.380859375 10H189.380859375V0H-16.07177734375V10Q-16.07177734375 10 -11.57177734375 10.0Q-7.07177734375 10 -7.07177734375 10Q15.92822265625 10 40.42822265625 24.5Q64.92822265625 39 80.92822265625 73ZM357.380859375 716.02392578125 364.559326171875 628.6181640625 114.5712890625 3H50.321044921875L307.3330078125 603.7138671875Q308.344970703125 605.535400390625 314.4521484375 619.4521484375Q320.559326171875 633.368896484375 328.464111328125 652.380859375Q336.368896484375 671.392822265625 342.273681640625 689.202392578125Q348.178466796875 707.011962890625 348.380859375 716.02392578125ZM486.439697265625 261.463623046875V227.415771484375H179.511474609375V261.463623046875ZM521.320068359375 73H634.488525390625Q649.893310546875 39 674.69091796875 24.5Q699.488525390625 10 722.488525390625 10Q722.488525390625 10 726.488525390625 10.0Q730.488525390625 10 730.488525390625 10V0H474.320068359375V10H483.320068359375Q502.5224609375 10 517.6236572265625 26.5Q532.724853515625 43 521.320068359375 73Z" fill="#000000" transform="translate(576.596 127.191) scale(0.113 -0.113)"/>
<path d="M120.130615234375 715 720.155517578125 99.0478515625 729.965087890625 -14 129.940185546875 600.9521484375ZM122.940185546875 71V0H39.940185546875V10Q39.940185546875 10 48.940185546875 10.0Q57.940185546875 10 58.940185546875 10Q83.940185546875 10 101.940185546875 28.0Q119.940185546875 46 119.940185546875 71ZM198.322998046875 71Q198.322998046875 46 216.322998046875 28.0Q234.322998046875 10 259.322998046875 10Q260.322998046875 10 269.322998046875 10.0Q278.322998046875 10 278.322998046875 10V0H195.322998046875V71ZM120.130615234375 715 197.322998046875 626.6171875 198.322998046875 0H119.940185546875V590Q119.940185546875 642.619140625 115.035400390625 678.8095703125Q110.130615234375 715 110.130615234375 715ZM729.155517578125 700V114Q729.155517578125 80.178466796875 731.4591064453125 50.7796630859375Q733.7626953125 21.380859375 736.3638916015625 3.6904296875Q738.965087890625 -14 738.965087890625 -14H729.965087890625L651.772705078125 75.228271484375V700ZM809.155517578125 700V690Q809.155517578125 690 800.155517578125 690.0Q791.155517578125 690 791.155517578125 690Q766.155517578125 690 748.155517578125 672.5Q730.155517578125 655 729.155517578125 629H726.155517578125V700ZM570.772705078125 700H653.772705078125V629H651.772705078125Q650.772705078125 655 633.272705078125 672.5Q615.772705078125 690 589.772705078125 690Q589.772705078125 690 580.772705078125 690.0Q571.772705078125 690 570.772705078125 690Z" fill="#000000" transform="translate(654.502 127.191) scale(0.113 -0.113)"/>
<path d="M52.619140625 700 135.16748046875 714Q135.369873046875 695 131.7626953125 664.0Q128.155517578125 633 118.1375732421875 600.5Q108.11962890625 568 90.3873291015625 540.5Q72.655029296875 513 44.607177734375 500L33.988037109375 505Q45.607177734375 549 50.3155517578125 579.0Q55.02392578125 609 55.52392578125 636.5Q56.02392578125 664 52.619140625 700Z" fill="#000000" transform="translate(747.654 127.191) scale(0.113 -0.113)"/>
<path d="M259.702880859375 714Q276.917236328125 714 299.1614990234375 712.0Q321.40576171875 710 343.4595947265625 706.5Q365.513427734375 703 383.1505126953125 699.5Q400.78759765625 696 408.989990234375 692L404.942138671875 572.904296875H395.73974609375Q395.73974609375 622.321044921875 360.8170166015625 651.1365966796875Q325.894287109375 679.9521484375 273.4296875 679.9521484375Q217.21533203125 679.9521484375 182.810546875 647.678466796875Q148.40576171875 615.40478515625 147.798583984375 571.226318359375Q147.19140625 548.78564453125 159.536865234375 524.3988037109375Q171.88232421875 500.011962890625 197.7158203125 479.02392578125L392.69189453125 316.251220703125Q427.9541015625 288.8583984375 442.40673828125 253.6201171875Q456.859375 218.3818359375 455.847412109375 179.678955078125Q454.4306640625 91.821533203125 397.4541015625 38.9107666015625Q340.4775390625 -14 243.1435546875 -14Q212.26220703125 -14 176.8275146484375 -8.1904296875Q141.392822265625 -2.380859375 110.28564453125 10.52392578125Q79.178466796875 23.4287109375 59.583251953125 43.02392578125Q54.964111328125 60.845458984375 55.368896484375 87.274169921875Q55.773681640625 113.702880859375 61.2916259765625 142.0244140625Q66.8095703125 170.345947265625 75.631103515625 192.1435546875H84.631103515625Q80.035888671875 140.941162109375 99.45263671875 101.11962890625Q118.869384765625 61.298095703125 156.5064697265625 39.8753662109375Q194.1435546875 18.45263671875 243.40576171875 20.0478515625Q301.846435546875 22.440673828125 340.33447265625 56.8275146484375Q378.822509765625 91.21435546875 378.822509765625 146.76171875Q378.822509765625 176.368896484375 365.8878173828125 200.3748779296875Q352.953125 224.380859375 326.26220703125 243.202392578125L140.131591796875 400.558349609375Q102.23828125 429.367919921875 86.2916259765625 467.4217529296875Q70.344970703125 505.4755859375 72.16650390625 542.97607421875Q73.583251953125 588.21435546875 95.607177734375 627.416748046875Q117.631103515625 666.619140625 159.155029296875 690.3095703125Q200.678955078125 714 259.702880859375 714ZM409.394775390625 704 408.78759765625 683H318.822509765625V704Z" fill="#000000" transform="translate(765.26 127.191) scale(0.113 -0.113)"/>
<path d="M713.845458984375 292 709.131591796875 129.940185546875Q684.345947265625 88.964111328125 645.655517578125 56.5772705078125Q606.965087890625 24.1904296875 553.060302734375 5.09521484375Q499.155517578125 -14 428.131591796875 -14Q318.059814453125 -13 233.5179443359375 31.4940185546875Q148.97607421875 75.988037109375 101.9581298828125 157.3868408203125Q54.940185546875 238.78564453125 54.940185546875 351Q54.940185546875 461.011962890625 101.35693359375 542.511962890625Q147.773681640625 624.011962890625 232.6131591796875 669.0059814453125Q317.45263671875 714 433.11962890625 714Q509.1435546875 714 569.85791015625 695.6131591796875Q630.572265625 677.226318359375 674.16748046875 650.45263671875L688.095703125 499.3330078125H679.095703125Q655.4765625 590.97607421875 589.702880859375 635.464111328125Q523.92919921875 679.9521484375 436.560302734375 679.9521484375Q351.393798828125 679.9521484375 289.322509765625 639.3629150390625Q227.251220703125 598.773681640625 193.2691650390625 525.3868408203125Q159.287109375 452 159.287109375 352.40478515625Q159.287109375 252.8095703125 192.8643798828125 178.7203369140625Q226.441650390625 104.631103515625 286.90576171875 63.3394775390625Q347.369873046875 22.0478515625 428.131591796875 20.0478515625Q501.155517578125 20.0478515625 559.1256103515625 46.0418701171875Q617.095703125 72.035888671875 655.26220703125 131.726318359375Q693.4287109375 191.416748046875 705.845458984375 292Z" fill="#000000" transform="translate(845.53 127.191) scale(0.113 -0.113)"/>
<path d="M224.26318359375 700V0H130.92822265625V700ZM492.2392578125 35.0478515625 500.3349609375 0H221.26318359375V35.0478515625ZM557.287109375 176.16748046875 503.3349609375 0H327.21533203125L363.21533203125 35.0478515625Q415.203369140625 35.0478515625 450.322509765625 52.559814453125Q485.441650390625 70.07177734375 508.465576171875 102.1968994140625Q531.489501953125 134.322021484375 547.3649526742788 176.16748046875ZM133.92822265625 73V0H53.92822265625V10Q53.92822265625 10 60.42822265625 10.0Q66.92822265625 10 66.92822265625 10Q92.92822265625 10 111.42822265625 28.5Q129.92822265625 47 130.92822265625 73ZM133.92822265625 627H130.92822265625Q129.92822265625 653 111.42822265625 671.5Q92.92822265625 690 66.92822265625 690Q66.92822265625 690 60.42822265625 690.0Q53.92822265625 690 53.92822265625 690V700H133.92822265625ZM221.26318359375 627V700H301.26318359375V690Q300.26318359375 690 294.26318359375 690.0Q288.26318359375 690 288.26318359375 690Q262.26318359375 690 243.76318359375 671.5Q225.26318359375 653 224.26318359375 627Z" fill="#000000" transform="translate(929.421 127.191) scale(0.113 -0.113)"/>
<path d="M208.287109375 700V260Q208.287109375 188.40478515625 233.8763427734375 134.416748046875Q259.465576171875 80.4287109375 305.9476318359375 50.73828125Q352.4296875 21.0478515625 414.21533203125 21.0478515625Q479.393798828125 21.0478515625 527.4710693359375 49.23828125Q575.54833984375 77.4287109375 602.333984375 128.0179443359375Q629.11962890625 178.607177734375 629.11962890625 247V700H684.21533203125V249.02392578125Q684.21533203125 169.8095703125 650.4117431640625 110.8035888671875Q616.608154296875 51.797607421875 554.393798828125 18.8988037109375Q492.179443359375 -14 408.1435546875 -14Q317.250244140625 -14 251.3095703125 18.5Q185.368896484375 51 150.1605224609375 109.90478515625Q114.9521484375 168.8095703125 114.9521484375 248.02392578125V700ZM117.9521484375 700V640H114.9521484375Q114.9521484375 662 99.4521484375 676.0Q83.9521484375 690 61.9521484375 690Q61.9521484375 690 53.9521484375 690.0Q45.9521484375 690 45.9521484375 690V700ZM277.287109375 700V690Q277.287109375 690 269.287109375 690.0Q261.287109375 690 261.287109375 690Q239.287109375 690 223.787109375 676.0Q208.287109375 662 208.287109375 640H206.287109375V700ZM632.11962890625 700V640H629.11962890625Q629.11962890625 662 613.61962890625 676.0Q598.11962890625 690 576.11962890625 690Q576.11962890625 690 568.11962890625 690.0Q560.11962890625 690 560.11962890625 690V700ZM753.21533203125 700V690Q753.21533203125 690 745.21533203125 690.0Q737.21533203125 690 737.21533203125 690Q715.21533203125 690 699.71533203125 676.0Q684.21533203125 662 684.21533203125 640H682.21533203125V700Z" fill="#000000" transform="translate(992.197 127.191) scale(0.113 -0.113)"/>
<path d="M154.821533203125 700H283.084716796875Q354.0966796875 700 405.5313720703125 680.21435546875Q456.966064453125 660.4287109375 484.6983642578125 622.9287109375Q512.4306640625 585.4287109375 512.4306640625 531.583251953125Q512.4306640625 488.368896484375 495.823486328125 456.7677001953125Q479.21630859375 425.16650390625 453.3055419921875 406.3748779296875Q427.394775390625 387.583251953125 398.180419921875 381Q450.370849609375 374.21435546875 489.47802734375 348.226318359375Q528.585205078125 322.23828125 549.9959716796875 281.940673828125Q571.40673828125 241.64306640625 571.40673828125 190.4287109375Q571.40673828125 131.797607421875 541.6744384765625 88.892822265625Q511.942138671875 45.988037109375 455.799072265625 22.9940185546875Q399.656005859375 0 322.21533203125 0H215.26318359375Q215.26318359375 0 215.76318359375 9.8095703125Q216.26318359375 19.619140625 216.26318359375 29.3275146484375Q216.26318359375 39.035888671875 216.26318359375 39.035888671875H305.059814453125Q354.631103515625 39.035888671875 390.1251220703125 57.0299072265625Q425.619140625 75.02392578125 444.821533203125 111.02392578125Q464.02392578125 147.02392578125 464.02392578125 199.0478515625Q464.02392578125 251 445.2562255859375 284.6844482421875Q426.488525390625 318.368896484375 396.2327880859375 336.8748779296875Q365.97705078125 355.380859375 329.71533203125 362.6904296875Q293.45361328125 370 258.26318359375 370V379Q281.465576171875 379 307.441650390625 384.8095703125Q333.417724609375 390.619140625 356.4830322265625 405.9227294921875Q379.54833984375 421.226318359375 394.322021484375 449.71435546875Q409.095703125 478.202392578125 409.095703125 522.76171875Q409.095703125 569.583251953125 392.798095703125 601.2796630859375Q376.50048828125 632.97607421875 345.3160400390625 648.66650390625Q314.131591796875 664.35693359375 269.16748046875 664.35693359375H164.821533203125Q164.821533203125 665.35693359375 162.321533203125 673.7677001953125Q159.821533203125 682.178466796875 157.321533203125 691.0892333984375Q154.821533203125 700 154.821533203125 700ZM224.26318359375 700V0H130.92822265625V700ZM133.92822265625 73V0H53.92822265625L54.725830078125 10Q56.725830078125 10 61.3270263671875 10.0Q65.92822265625 10 66.92822265625 10Q92.92822265625 10 111.8270263671875 28.5Q130.725830078125 47 130.92822265625 73ZM133.92822265625 627H130.92822265625Q130.725830078125 653 111.8270263671875 671.5Q92.92822265625 690 66.92822265625 690Q65.92822265625 690 61.3270263671875 690.0Q56.725830078125 690 54.725830078125 690L53.92822265625 700H133.92822265625Z" fill="#000000" transform="translate(1079.476 127.191) scale(0.113 -0.113)"/>
<path d="M154.821533203125 700H283.084716796875Q354.0966796875 700 405.5313720703125 680.21435546875Q456.966064453125 660.4287109375 484.6983642578125 622.9287109375Q512.4306640625 585.4287109375 512.4306640625 531.583251953125Q512.4306640625 488.368896484375 495.823486328125 456.7677001953125Q479.21630859375 425.16650390625 453.3055419921875 406.3748779296875Q427.394775390625 387.583251953125 398.180419921875 381Q450.370849609375 374.21435546875 489.47802734375 348.226318359375Q528.585205078125 322.23828125 549.9959716796875 281.940673828125Q571.40673828125 241.64306640625 571.40673828125 190.4287109375Q571.40673828125 131.797607421875 541.6744384765625 88.892822265625Q511.942138671875 45.988037109375 455.799072265625 22.9940185546875Q399.656005859375 0 322.21533203125 0H215.26318359375Q215.26318359375 0 215.76318359375 9.8095703125Q216.26318359375 19.619140625 216.26318359375 29.3275146484375Q216.26318359375 39.035888671875 216.26318359375 39.035888671875H305.059814453125Q354.631103515625 39.035888671875 390.1251220703125 57.0299072265625Q425.619140625 75.02392578125 444.821533203125 111.02392578125Q464.02392578125 147.02392578125 464.02392578125 199.0478515625Q464.02392578125 251 445.2562255859375 284.6844482421875Q426.488525390625 318.368896484375 396.2327880859375 336.8748779296875Q365.97705078125 355.380859375 329.71533203125 362.6904296875Q293.45361328125 370 258.26318359375 370V379Q281.465576171875 379 307.441650390625 384.8095703125Q333.417724609375 390.619140625 356.4830322265625 405.9227294921875Q379.54833984375 421.226318359375 394.322021484375 449.71435546875Q409.095703125 478.202392578125 409.095703125 522.76171875Q409.095703125 569.583251953125 392.798095703125 601.2796630859375Q376.50048828125 632.97607421875 345.3160400390625 648.66650390625Q314.131591796875 664.35693359375 269.16748046875 664.35693359375H164.821533203125Q164.821533203125 665.35693359375 162.321533203125 673.7677001953125Q159.821533203125 682.178466796875 157.321533203125 691.0892333984375Q154.821533203125 700 154.821533203125 700ZM224.26318359375 700V0H130.92822265625V700ZM133.92822265625 73V0H53.92822265625L54.725830078125 10Q56.725830078125 10 61.3270263671875 10.0Q65.92822265625 10 66.92822265625 10Q92.92822265625 10 111.8270263671875 28.5Q130.725830078125 47 130.92822265625 73ZM133.92822265625 627H130.92822265625Q130.725830078125 653 111.8270263671875 671.5Q92.92822265625 690 66.92822265625 690Q65.92822265625 690 61.3270263671875 690.0Q56.725830078125 690 54.725830078125 690L53.92822265625 700H133.92822265625Z" fill="#000000" transform="translate(301.421 211.331) scale(0.048 -0.048)"/>
<path d="M357.380859375 716.02392578125 663.50048828125 6H547.129638671875L323.820556640625 588.438720703125ZM142.380859375 73Q134.97607421875 53 139.97607421875 39.0Q144.97607421875 25 156.678466796875 17.5Q168.380859375 10 180.380859375 10H189.380859375V0H-16.07177734375V10Q-16.07177734375 10 -11.57177734375 10.0Q-7.07177734375 10 -7.07177734375 10Q15.92822265625 10 40.42822265625 24.5Q64.92822265625 39 80.92822265625 73ZM357.380859375 716.02392578125 364.559326171875 628.6181640625 114.5712890625 3H50.321044921875L307.3330078125 603.7138671875Q308.344970703125 605.535400390625 314.4521484375 619.4521484375Q320.559326171875 633.368896484375 328.464111328125 652.380859375Q336.368896484375 671.392822265625 342.273681640625 689.202392578125Q348.178466796875 707.011962890625 348.380859375 716.02392578125ZM486.439697265625 261.463623046875V227.415771484375H179.511474609375V261.463623046875ZM521.320068359375 73H634.488525390625Q649.893310546875 39 674.69091796875 24.5Q699.488525390625 10 722.488525390625 10Q722.488525390625 10 726.488525390625 10.0Q730.488525390625 10 730.488525390625 10V0H474.320068359375V10H483.320068359375Q502.5224609375 10 517.6236572265625 26.5Q532.724853515625 43 521.320068359375 73Z" fill="#000000" transform="translate(357.797 211.331) scale(0.048 -0.048)"/>
<path d="M212.4775390625 700H349.4296875Q394.4296875 700 433.0548095703125 688.011962890625Q471.679931640625 676.02392578125 499.513427734375 652.33349609375Q527.346923828125 628.64306640625 542.9720458984375 593.6370849609375Q558.59716796875 558.631103515625 558.59716796875 511.797607421875Q558.59716796875 465.821533203125 537.8175048828125 422.5299072265625Q517.037841796875 379.23828125 479.347412109375 351.131103515625Q441.656982421875 323.02392578125 390.62109375 321Q412.680908203125 312.988037109375 434.9072265625 289.9700927734375Q457.133544921875 266.9521484375 472.74072265625 244.92822265625Q473.1455078125 244.321044921875 485.5323486328125 225.9342041015625Q497.919189453125 207.54736328125 516.800048828125 181.0653076171875Q535.680908203125 154.583251953125 555.26416015625 128.59521484375Q574.847412109375 102.607177734375 589.64501953125 86Q610.252197265625 62.178466796875 629.64501953125 45.380859375Q649.037841796875 28.583251953125 671.323486328125 19.392822265625Q693.609130859375 10.202392578125 721.59716796875 10V0H652.4296875Q603.59619140625 0 566.5543212890625 12.583251953125Q529.512451171875 25.16650390625 502.9705810546875 46.3748779296875Q476.4287109375 67.583251953125 457.392822265625 93.26220703125Q452.773681640625 100.095703125 440.5892333984375 118.893310546875Q428.40478515625 137.69091796875 412.6370849609375 162.2681884765625Q396.869384765625 186.845458984375 381.8040771484375 210.7203369140625Q366.73876953125 234.59521484375 355.7626953125 252.28564453125Q344.78662109375 269.97607421875 342.3818359375 275Q325.203369140625 302.226318359375 304.02490234375 321.607177734375Q282.846435546875 340.988037109375 258.4775390625 342V352Q259.287109375 352 272.6619873046875 351.6011962890625Q286.036865234375 351.202392578125 303.989013671875 352Q330.393798828125 352.797607421875 359.572265625 361.011962890625Q388.750732421875 369.226318359375 413.322021484375 392.23828125Q437.893310546875 415.250244140625 450.07177734375 459.845458984375Q452.6669921875 470.23828125 454.464599609375 485.321533203125Q456.26220703125 500.40478515625 455.26220703125 516Q453.655029296875 585.21435546875 420.357421875 623.3868408203125Q387.059814453125 661.559326171875 333.2861328125 663.9521484375Q309.941162109375 665.54736328125 284.7926025390625 665.1485595703125Q259.64404296875 664.749755859375 241.870361328125 664.749755859375Q224.0966796875 664.749755859375 222.4775390625 664.749755859375Q222.4775390625 665.54736328125 219.9775390625 674.1605224609375Q217.4775390625 682.773681640625 214.9775390625 691.3868408203125Q212.4775390625 700 212.4775390625 700ZM225.4775390625 700V0H131.940185546875V700ZM134.940185546875 73V0H54.940185546875V10Q55.344970703125 10 61.5413818359375 10.0Q67.73779296875 10 67.940185546875 10Q93.940185546875 10 112.440185546875 28.5Q130.940185546875 47 131.940185546875 73ZM134.940185546875 627H131.940185546875Q130.940185546875 653 112.440185546875 671.5Q93.940185546875 690 67.940185546875 690Q67.73779296875 690 61.5413818359375 690.0Q55.344970703125 690 54.940185546875 690V700H134.940185546875ZM222.4775390625 73H225.4775390625Q225.4775390625 47 244.4775390625 28.5Q263.4775390625 10 289.4775390625 10Q289.88232421875 10 295.5787353515625 10.0Q301.275146484375 10 301.4775390625 10V0H222.4775390625Z" fill="#000000" transform="translate(418.906 211.331) scale(0.048 -0.048)"/>
<path d="M154.821533203125 700H283.084716796875Q354.0966796875 700 405.5313720703125 680.21435546875Q456.966064453125 660.4287109375 484.6983642578125 622.9287109375Q512.4306640625 585.4287109375 512.4306640625 531.583251953125Q512.4306640625 488.368896484375 495.823486328125 456.7677001953125Q479.21630859375 425.16650390625 453.3055419921875 406.3748779296875Q427.394775390625 387.583251953125 398.180419921875 381Q450.370849609375 374.21435546875 489.47802734375 348.226318359375Q528.585205078125 322.23828125 549.9959716796875 281.940673828125Q571.40673828125 241.64306640625 571.40673828125 190.4287109375Q571.40673828125 131.797607421875 541.6744384765625 88.892822265625Q511.942138671875 45.988037109375 455.799072265625 22.9940185546875Q399.656005859375 0 322.21533203125 0H215.26318359375Q215.26318359375 0 215.76318359375 9.8095703125Q216.26318359375 19.619140625 216.26318359375 29.3275146484375Q216.26318359375 39.035888671875 216.26318359375 39.035888671875H305.059814453125Q354.631103515625 39.035888671875 390.1251220703125 57.0299072265625Q425.619140625 75.02392578125 444.821533203125 111.02392578125Q464.02392578125 147.02392578125 464.02392578125 199.0478515625Q464.02392578125 251 445.2562255859375 284.6844482421875Q426.488525390625 318.368896484375 396.2327880859375 336.8748779296875Q365.97705078125 355.380859375 329.71533203125 362.6904296875Q293.45361328125 370 258.26318359375 370V379Q281.465576171875 379 307.441650390625 384.8095703125Q333.417724609375 390.619140625 356.4830322265625 405.9227294921875Q379.54833984375 421.226318359375 394.322021484375 449.71435546875Q409.095703125 478.202392578125 409.095703125 522.76171875Q409.095703125 569.583251953125 392.798095703125 601.2796630859375Q376.50048828125 632.97607421875 345.3160400390625 648.66650390625Q314.131591796875 664.35693359375 269.16748046875 664.35693359375H164.821533203125Q164.821533203125 665.35693359375 162.321533203125 673.7677001953125Q159.821533203125 682.178466796875 157.321533203125 691.0892333984375Q154.821533203125 700 154.821533203125 700ZM224.26318359375 700V0H130.92822265625V700ZM133.92822265625 73V0H53.92822265625L54.725830078125 10Q56.725830078125 10 61.3270263671875 10.0Q65.92822265625 10 66.92822265625 10Q92.92822265625 10 111.8270263671875 28.5Q130.725830078125 47 130.92822265625 73ZM133.92822265625 627H130.92822265625Q130.725830078125 653 111.8270263671875 671.5Q92.92822265625 690 66.92822265625 690Q65.92822265625 690 61.3270263671875 690.0Q56.725830078125 690 54.725830078125 690L53.92822265625 700H133.92822265625Z" fill="#000000" transform="translate(479.346 211.331) scale(0.048 -0.048)"/>
<path d="M224.26318359375 700V0H130.92822265625V700ZM492.2392578125 35.0478515625 500.3349609375 0H221.26318359375V35.0478515625ZM451.26318359375 362.02392578125V327.97607421875H221.26318359375V362.02392578125ZM496.287109375 700V664.9521484375H221.26318359375V700ZM557.287109375 176.16748046875 503.3349609375 0H327.21533203125L363.21533203125 35.0478515625Q415.203369140625 35.0478515625 450.322509765625 52.559814453125Q485.441650390625 70.07177734375 508.465576171875 102.1968994140625Q531.489501953125 134.322021484375 547.3649526742788 176.16748046875ZM451.26318359375 329.97607421875V253.8564453125H441.26318359375V266.83251953125Q441.26318359375 292.297119140625 423.9237060546875 310.035400390625Q406.584228515625 327.773681640625 381.11962890625 327.97607421875V329.97607421875ZM451.26318359375 436.1435546875V360.02392578125H381.11962890625V362.02392578125Q406.584228515625 363.02392578125 424.02490234375 380.8634033203125Q441.465576171875 398.702880859375 441.26318359375 424.16748046875V436.1435546875ZM496.287109375 667.9521484375V575.80859375H486.287109375V591.78466796875Q486.287109375 623.07080078125 465.846435546875 644.011474609375Q445.40576171875 664.9521484375 413.11962890625 665.9521484375V667.9521484375ZM496.287109375 718V689L374.287109375 700Q396.287109375 700 420.787109375 703.0Q445.287109375 706 466.287109375 710.0Q487.287109375 714 496.287109375 718ZM133.92822265625 73V0H53.92822265625V10Q53.92822265625 10 60.42822265625 10.0Q66.92822265625 10 66.92822265625 10Q92.92822265625 10 111.42822265625 28.5Q129.92822265625 47 130.92822265625 73ZM133.92822265625 627H130.92822265625Q130.725830078125 653 111.78591537475586 671.5Q92.84600067138672 690 66.92822265625 690Q66.92822265625 690 60.8270263671875 690.0Q54.725830078125 690 54.725830078125 690L53.92822265625 700H133.92822265625Z" fill="#000000" transform="translate(535.722 211.331) scale(0.048 -0.048)"/>
<path d="M212.4775390625 700H349.4296875Q394.4296875 700 433.0548095703125 688.011962890625Q471.679931640625 676.02392578125 499.513427734375 652.33349609375Q527.346923828125 628.64306640625 542.9720458984375 593.6370849609375Q558.59716796875 558.631103515625 558.59716796875 511.797607421875Q558.59716796875 465.821533203125 537.8175048828125 422.5299072265625Q517.037841796875 379.23828125 479.347412109375 351.131103515625Q441.656982421875 323.02392578125 390.62109375 321Q412.680908203125 312.988037109375 434.9072265625 289.9700927734375Q457.133544921875 266.9521484375 472.74072265625 244.92822265625Q473.1455078125 244.321044921875 485.5323486328125 225.9342041015625Q497.919189453125 207.54736328125 516.800048828125 181.0653076171875Q535.680908203125 154.583251953125 555.26416015625 128.59521484375Q574.847412109375 102.607177734375 589.64501953125 86Q610.252197265625 62.178466796875 629.64501953125 45.380859375Q649.037841796875 28.583251953125 671.323486328125 19.392822265625Q693.609130859375 10.202392578125 721.59716796875 10V0H652.4296875Q603.59619140625 0 566.5543212890625 12.583251953125Q529.512451171875 25.16650390625 502.9705810546875 46.3748779296875Q476.4287109375 67.583251953125 457.392822265625 93.26220703125Q452.773681640625 100.095703125 440.5892333984375 118.893310546875Q428.40478515625 137.69091796875 412.6370849609375 162.2681884765625Q396.869384765625 186.845458984375 381.8040771484375 210.7203369140625Q366.73876953125 234.59521484375 355.7626953125 252.28564453125Q344.78662109375 269.97607421875 342.3818359375 275Q325.203369140625 302.226318359375 304.02490234375 321.607177734375Q282.846435546875 340.988037109375 258.4775390625 342V352Q259.287109375 352 272.6619873046875 351.6011962890625Q286.036865234375 351.202392578125 303.989013671875 352Q330.393798828125 352.797607421875 359.572265625 361.011962890625Q388.750732421875 369.226318359375 413.322021484375 392.23828125Q437.893310546875 415.250244140625 450.07177734375 459.845458984375Q452.6669921875 470.23828125 454.464599609375 485.321533203125Q456.26220703125 500.40478515625 455.26220703125 516Q453.655029296875 585.21435546875 420.357421875 623.3868408203125Q387.059814453125 661.559326171875 333.2861328125 663.9521484375Q309.941162109375 665.54736328125 284.7926025390625 665.1485595703125Q259.64404296875 664.749755859375 241.870361328125 664.749755859375Q224.0966796875 664.749755859375 222.4775390625 664.749755859375Q222.4775390625 665.54736328125 219.9775390625 674.1605224609375Q217.4775390625 682.773681640625 214.9775390625 691.3868408203125Q212.4775390625 700 212.4775390625 700ZM225.4775390625 700V0H131.940185546875V700ZM134.940185546875 73V0H54.940185546875V10Q55.344970703125 10 61.5413818359375 10.0Q67.73779296875 10 67.940185546875 10Q93.940185546875 10 112.440185546875 28.5Q130.940185546875 47 131.940185546875 73ZM134.940185546875 627H131.940185546875Q130.940185546875 653 112.440185546875 671.5Q93.940185546875 690 67.940185546875 690Q67.73779296875 690 61.5413818359375 690.0Q55.344970703125 690 54.940185546875 690V700H134.940185546875ZM222.4775390625 73H225.4775390625Q225.4775390625 47 244.4775390625 28.5Q263.4775390625 10 289.4775390625 10Q289.88232421875 10 295.5787353515625 10.0Q301.275146484375 10 301.4775390625 10V0H222.4775390625Z" fill="#000000" transform="translate(591.141 211.331) scale(0.048 -0.048)"/>
<path d="M259.702880859375 714Q276.917236328125 714 299.1614990234375 712.0Q321.40576171875 710 343.4595947265625 706.5Q365.513427734375 703 383.1505126953125 699.5Q400.78759765625 696 408.989990234375 692L404.942138671875 572.904296875H395.73974609375Q395.73974609375 622.321044921875 360.8170166015625 651.1365966796875Q325.894287109375 679.9521484375 273.4296875 679.9521484375Q217.21533203125 679.9521484375 182.810546875 647.678466796875Q148.40576171875 615.40478515625 147.798583984375 571.226318359375Q147.19140625 548.78564453125 159.536865234375 524.3988037109375Q171.88232421875 500.011962890625 197.7158203125 479.02392578125L392.69189453125 316.251220703125Q427.9541015625 288.8583984375 442.40673828125 253.6201171875Q456.859375 218.3818359375 455.847412109375 179.678955078125Q454.4306640625 91.821533203125 397.4541015625 38.9107666015625Q340.4775390625 -14 243.1435546875 -14Q212.26220703125 -14 176.8275146484375 -8.1904296875Q141.392822265625 -2.380859375 110.28564453125 10.52392578125Q79.178466796875 23.4287109375 59.583251953125 43.02392578125Q54.964111328125 60.845458984375 55.368896484375 87.274169921875Q55.773681640625 113.702880859375 61.2916259765625 142.0244140625Q66.8095703125 170.345947265625 75.631103515625 192.1435546875H84.631103515625Q80.035888671875 140.941162109375 99.45263671875 101.11962890625Q118.869384765625 61.298095703125 156.5064697265625 39.8753662109375Q194.1435546875 18.45263671875 243.40576171875 20.0478515625Q301.846435546875 22.440673828125 340.33447265625 56.8275146484375Q378.822509765625 91.21435546875 378.822509765625 146.76171875Q378.822509765625 176.368896484375 365.8878173828125 200.3748779296875Q352.953125 224.380859375 326.26220703125 243.202392578125L140.131591796875 400.558349609375Q102.23828125 429.367919921875 86.2916259765625 467.4217529296875Q70.344970703125 505.4755859375 72.16650390625 542.97607421875Q73.583251953125 588.21435546875 95.607177734375 627.416748046875Q117.631103515625 666.619140625 159.155029296875 690.3095703125Q200.678955078125 714 259.702880859375 714ZM409.394775390625 704 408.78759765625 683H318.822509765625V704Z" fill="#000000" transform="translate(651.581 211.331) scale(0.048 -0.048)"/>
<path d="M698.26318359375 700V0H604.92822265625V700ZM224.26318359375 700V0H130.92822265625V700ZM613.92822265625 363.83349609375V329.78564453125H214.26318359375V363.83349609375ZM133.92822265625 73V0H53.92822265625V10Q53.92822265625 10 60.42822265625 10.0Q66.92822265625 10 66.92822265625 10Q92.92822265625 10 111.42822265625 28.5Q129.92822265625 47 130.92822265625 73ZM133.92822265625 627H130.92822265625Q129.92822265625 653 111.42822265625 671.5Q92.92822265625 690 66.92822265625 690Q66.92822265625 690 60.42822265625 690.0Q53.92822265625 690 53.92822265625 690V700H133.92822265625ZM221.26318359375 73H224.26318359375Q225.26318359375 47 243.76318359375 28.5Q262.26318359375 10 288.26318359375 10Q288.26318359375 10 294.26318359375 10.0Q300.26318359375 10 301.26318359375 10V0H221.26318359375ZM221.26318359375 627V700H301.26318359375V690Q300.26318359375 690 294.26318359375 690.0Q288.26318359375 690 288.26318359375 690Q262.26318359375 690 243.76318359375 671.5Q225.26318359375 653 224.26318359375 627ZM607.92822265625 73V0H527.92822265625V10Q528.92822265625 10 534.92822265625 10.0Q540.92822265625 10 540.92822265625 10Q566.92822265625 10 585.92822265625 28.5Q604.92822265625 47 604.92822265625 73ZM607.92822265625 627H604.92822265625Q604.92822265625 653 585.92822265625 671.5Q566.92822265625 690 540.92822265625 690Q540.92822265625 690 534.92822265625 690.0Q528.92822265625 690 527.92822265625 690V700H607.92822265625ZM695.26318359375 73H698.26318359375Q699.26318359375 47 717.76318359375 28.5Q736.26318359375 10 762.26318359375 10Q762.26318359375 10 768.76318359375 10.0Q775.26318359375 10 775.26318359375 10V0H695.26318359375ZM695.26318359375 627V700H775.26318359375V690Q775.26318359375 690 768.76318359375 690.0Q762.26318359375 690 762.26318359375 690Q736.26318359375 690 717.76318359375 671.5Q699.26318359375 653 698.26318359375 627Z" fill="#000000" transform="translate(702.889 211.331) scale(0.048 -0.048)"/>
<path d="M433.250244140625 714Q544.702880859375 714 628.2327880859375 668.90478515625Q711.7626953125 623.8095703125 758.1734619140625 542.011962890625Q804.584228515625 460.21435546875 804.584228515625 350Q804.584228515625 239.988037109375 758.1734619140625 158.0892333984375Q711.7626953125 76.1904296875 628.2327880859375 31.09521484375Q544.702880859375 -14 433.250244140625 -14Q322.59521484375 -14 239.16650390625 31.09521484375Q155.73779296875 76.1904296875 109.3270263671875 157.988037109375Q62.916259765625 239.78564453125 62.916259765625 350Q62.916259765625 460.011962890625 109.3270263671875 541.9107666015625Q155.73779296875 623.8095703125 239.16650390625 668.90478515625Q322.59521484375 714 433.250244140625 714ZM433.250244140625 20.0478515625Q513.59521484375 20.0478515625 573.04736328125 61.1370849609375Q632.49951171875 102.226318359375 665.4696044921875 176.21435546875Q698.439697265625 250.202392578125 698.439697265625 350Q698.439697265625 449.797607421875 665.4696044921875 523.78564453125Q632.49951171875 597.773681640625 573.04736328125 638.8629150390625Q513.59521484375 679.9521484375 433.250244140625 679.9521484375Q353.9052734375 679.9521484375 294.453125 638.8629150390625Q235.0009765625 597.773681640625 202.0308837890625 523.78564453125Q169.060791015625 449.797607421875 169.060791015625 350Q169.060791015625 250.202392578125 202.0308837890625 176.21435546875Q235.0009765625 102.226318359375 294.453125 61.1370849609375Q353.9052734375 20.0478515625 433.250244140625 20.0478515625Z" fill="#000000" transform="translate(769.497 211.331) scale(0.048 -0.048)"/>
<path d="M212.275146484375 700H340.227294921875Q411.513427734375 700 460.14453125 676.2916259765625Q508.775634765625 652.583251953125 534.2816162109375 609.1844482421875Q559.78759765625 565.78564453125 560.394775390625 507.40478515625Q561.001953125 459.583251953125 542.6983642578125 421.3629150390625Q524.394775390625 383.142578125 493.2816162109375 357.130615234375Q462.16845703125 331.11865234375 422.751708984375 318.61865234375Q383.3349609375 306.11865234375 341.1146240234375 310.2318115234375Q298.894287109375 314.344970703125 259.275146484375 336.97607421875V346.97607421875Q259.275146484375 346.97607421875 274.7572021484375 345.28564453125Q290.2392578125 343.59521484375 314.4117431640625 346.0059814453125Q338.584228515625 348.416748046875 365.453125 358.4227294921875Q392.322021484375 368.4287109375 415.6968994140625 392.1251220703125Q439.07177734375 415.821533203125 451.059814453125 457Q454.26220703125 468.8095703125 456.1610107421875 485.2083740234375Q458.059814453125 501.607177734375 457.059814453125 517Q455.857421875 584.380859375 421.3634033203125 625.16650390625Q386.869384765625 665.9521484375 324.083740234375 665.9521484375H222.275146484375Q222.275146484375 665.9521484375 219.775146484375 674.464111328125Q217.275146484375 682.97607421875 214.775146484375 691.488037109375Q212.275146484375 700 212.275146484375 700ZM225.275146484375 700V0H131.940185546875V700ZM134.940185546875 73V0H54.940185546875V10Q55.344970703125 10 61.5413818359375 10.0Q67.73779296875 10 67.940185546875 10Q93.940185546875 10 112.440185546875 28.5Q130.940185546875 47 131.940185546875 73ZM134.940185546875 627H131.940185546875Q131.940185546875 653 112.940185546875 671.5Q93.940185546875 690 67.940185546875 690Q67.73779296875 690 62.0413818359375 690.0Q56.344970703125 690 55.940185546875 690L54.940185546875 700H134.940185546875ZM222.275146484375 73H225.275146484375Q226.275146484375 47 244.775146484375 28.5Q263.275146484375 10 289.275146484375 10Q289.679931640625 10 295.8763427734375 10.0Q302.07275390625 10 302.275146484375 10V0H222.275146484375Z" fill="#000000" transform="translate(837.204 211.331) scale(0.048 -0.048)"/>
<path d="M259.702880859375 714Q276.917236328125 714 299.1614990234375 712.0Q321.40576171875 710 343.4595947265625 706.5Q365.513427734375 703 383.1505126953125 699.5Q400.78759765625 696 408.989990234375 692L404.942138671875 572.904296875H395.73974609375Q395.73974609375 622.321044921875 360.8170166015625 651.1365966796875Q325.894287109375 679.9521484375 273.4296875 679.9521484375Q217.21533203125 679.9521484375 182.810546875 647.678466796875Q148.40576171875 615.40478515625 147.798583984375 571.226318359375Q147.19140625 548.78564453125 159.536865234375 524.3988037109375Q171.88232421875 500.011962890625 197.7158203125 479.02392578125L392.69189453125 316.251220703125Q427.9541015625 288.8583984375 442.40673828125 253.6201171875Q456.859375 218.3818359375 455.847412109375 179.678955078125Q454.4306640625 91.821533203125 397.4541015625 38.9107666015625Q340.4775390625 -14 243.1435546875 -14Q212.26220703125 -14 176.8275146484375 -8.1904296875Q141.392822265625 -2.380859375 110.28564453125 10.52392578125Q79.178466796875 23.4287109375 59.583251953125 43.02392578125Q54.964111328125 60.845458984375 55.368896484375 87.274169921875Q55.773681640625 113.702880859375 61.2916259765625 142.0244140625Q66.8095703125 170.345947265625 75.631103515625 192.1435546875H84.631103515625Q80.035888671875 140.941162109375 99.45263671875 101.11962890625Q118.869384765625 61.298095703125 156.5064697265625 39.8753662109375Q194.1435546875 18.45263671875 243.40576171875 20.0478515625Q301.846435546875 22.440673828125 340.33447265625 56.8275146484375Q378.822509765625 91.21435546875 378.822509765625 146.76171875Q378.822509765625 176.368896484375 365.8878173828125 200.3748779296875Q352.953125 224.380859375 326.26220703125 243.202392578125L140.131591796875 400.558349609375Q102.23828125 429.367919921875 86.2916259765625 467.4217529296875Q70.344970703125 505.4755859375 72.16650390625 542.97607421875Q73.583251953125 588.21435546875 95.607177734375 627.416748046875Q117.631103515625 666.619140625 159.155029296875 690.3095703125Q200.678955078125 714 259.702880859375 714ZM409.394775390625 704 408.78759765625 683H318.822509765625V704Z" fill="#000000" transform="translate(364.817 286.368) scale(0.039 -0.039)"/>
<path d="M588.298095703125 714Q588.298095703125 714 588.298095703125 709.5Q588.298095703125 705 588.298095703125 705L159.50146484375 0H54.940185546875V9L457.129638671875 666.9521484375H68.940185546875V701H482.298095703125Q502.298095703125 701 524.798095703125 703.0Q547.298095703125 705 564.798095703125 708.0Q582.298095703125 711 588.298095703125 714ZM589.226318359375 34.0478515625 583.226318359375 0H120.964111328125V34.0478515625ZM622.464599609375 169.78662109375 588.45263671875 0H439.45166015625L448.4755859375 27.4287109375L461.0947265625 34.0478515625Q520.3330078125 34.0478515625 558.488037109375 72.4765625Q596.64306640625 110.9052734375 612.464599609375 169.78662109375ZM152.107666015625 666.9521484375Q119.821533203125 665.9521484375 99.380859375 645.4102783203125Q78.940185546875 624.868408203125 78.940185546875 592.78466796875V576.80859375H68.940185546875V669.9521484375H152.107666015625ZM68.940185546875 719Q78.940185546875 715 99.440185546875 711.0Q119.940185546875 707 144.940185546875 704.0Q169.940185546875 701 190.940185546875 701L68.940185546875 690Z" fill="#000000" transform="translate(398.481 286.368) scale(0.039 -0.039)"/>
<path d="M433.250244140625 714Q544.702880859375 714 628.2327880859375 668.90478515625Q711.7626953125 623.8095703125 758.1734619140625 542.011962890625Q804.584228515625 460.21435546875 804.584228515625 350Q804.584228515625 239.988037109375 758.1734619140625 158.0892333984375Q711.7626953125 76.1904296875 628.2327880859375 31.09521484375Q544.702880859375 -14 433.250244140625 -14Q322.59521484375 -14 239.16650390625 31.09521484375Q155.73779296875 76.1904296875 109.3270263671875 157.988037109375Q62.916259765625 239.78564453125 62.916259765625 350Q62.916259765625 460.011962890625 109.3270263671875 541.9107666015625Q155.73779296875 623.8095703125 239.16650390625 668.90478515625Q322.59521484375 714 433.250244140625 714ZM433.250244140625 20.0478515625Q513.59521484375 20.0478515625 573.04736328125 61.1370849609375Q632.49951171875 102.226318359375 665.4696044921875 176.21435546875Q698.439697265625 250.202392578125 698.439697265625 350Q698.439697265625 449.797607421875 665.4696044921875 523.78564453125Q632.49951171875 597.773681640625 573.04736328125 638.8629150390625Q513.59521484375 679.9521484375 433.250244140625 679.9521484375Q353.9052734375 679.9521484375 294.453125 638.8629150390625Q235.0009765625 597.773681640625 202.0308837890625 523.78564453125Q169.060791015625 449.797607421875 169.060791015625 350Q169.060791015625 250.202392578125 202.0308837890625 176.21435546875Q235.0009765625 102.226318359375 294.453125 61.1370849609375Q353.9052734375 20.0478515625 433.250244140625 20.0478515625Z" fill="#000000" transform="translate(437.867 286.368) scale(0.039 -0.039)"/>
<path d="M753.953125 714 761.953125 633.034912109375 495.5712890625 88.8095703125Q495.5712890625 88.8095703125 487.3629150390625 71.607177734375Q479.154541015625 54.40478515625 470.6485595703125 30.297607421875Q462.142578125 6.1904296875 459.9521484375 -16.02392578125H450.154541015625L427.654052734375 55.07177734375ZM117.904296875 73V0H6.904296875V10Q7.904296875 10 15.404296875 10.0Q22.904296875 10 22.904296875 10Q49.904296875 10 70.904296875 26.5Q91.904296875 43 95.904296875 73ZM151.964111328125 57Q151.964111328125 56 151.964111328125 55.0Q151.964111328125 54 151.964111328125 52Q151.964111328125 36 163.464111328125 22.5Q174.964111328125 9 190.964111328125 9H206.16650390625V0H144.964111328125V57ZM173.535400390625 714H183.3330078125L208.392822265625 641.2373046875L146.559326171875 0H87.49951171875ZM183.3330078125 714 484.2861328125 119.73974609375 450.154541015625 -16.02392578125 162.106689453125 560.30712890625ZM762.953125 714 851.989013671875 0H746.463623046875L692.88037109375 557.223388671875L753.953125 714ZM821.584228515625 73H842.78662109375Q847.78662109375 43 868.6854248046875 26.5Q889.584228515625 10 915.78662109375 10Q915.78662109375 10 923.6854248046875 10.0Q931.584228515625 10 931.78662109375 10V0H821.584228515625ZM741.058837890625 57H748.058837890625V0H686.8564453125V9H702.058837890625Q718.8564453125 9 729.9576416015625 22.5Q741.058837890625 36 741.058837890625 52Q741.058837890625 54 741.058837890625 55.0Q741.058837890625 56 741.058837890625 57Z" fill="#000000" transform="translate(485.064 286.368) scale(0.039 -0.039)"/>
<path d="M154.821533203125 700H283.084716796875Q354.0966796875 700 405.5313720703125 680.21435546875Q456.966064453125 660.4287109375 484.6983642578125 622.9287109375Q512.4306640625 585.4287109375 512.4306640625 531.583251953125Q512.4306640625 488.368896484375 495.823486328125 456.7677001953125Q479.21630859375 425.16650390625 453.3055419921875 406.3748779296875Q427.394775390625 387.583251953125 398.180419921875 381Q450.370849609375 374.21435546875 489.47802734375 348.226318359375Q528.585205078125 322.23828125 549.9959716796875 281.940673828125Q571.40673828125 241.64306640625 571.40673828125 190.4287109375Q571.40673828125 131.797607421875 541.6744384765625 88.892822265625Q511.942138671875 45.988037109375 455.799072265625 22.9940185546875Q399.656005859375 0 322.21533203125 0H215.26318359375Q215.26318359375 0 215.76318359375 9.8095703125Q216.26318359375 19.619140625 216.26318359375 29.3275146484375Q216.26318359375 39.035888671875 216.26318359375 39.035888671875H305.059814453125Q354.631103515625 39.035888671875 390.1251220703125 57.0299072265625Q425.619140625 75.02392578125 444.821533203125 111.02392578125Q464.02392578125 147.02392578125 464.02392578125 199.0478515625Q464.02392578125 251 445.2562255859375 284.6844482421875Q426.488525390625 318.368896484375 396.2327880859375 336.8748779296875Q365.97705078125 355.380859375 329.71533203125 362.6904296875Q293.45361328125 370 258.26318359375 370V379Q281.465576171875 379 307.441650390625 384.8095703125Q333.417724609375 390.619140625 356.4830322265625 405.9227294921875Q379.54833984375 421.226318359375 394.322021484375 449.71435546875Q409.095703125 478.202392578125 409.095703125 522.76171875Q409.095703125 569.583251953125 392.798095703125 601.2796630859375Q376.50048828125 632.97607421875 345.3160400390625 648.66650390625Q314.131591796875 664.35693359375 269.16748046875 664.35693359375H164.821533203125Q164.821533203125 665.35693359375 162.321533203125 673.7677001953125Q159.821533203125 682.178466796875 157.321533203125 691.0892333984375Q154.821533203125 700 154.821533203125 700ZM224.26318359375 700V0H130.92822265625V700ZM133.92822265625 73V0H53.92822265625L54.725830078125 10Q56.725830078125 10 61.3270263671875 10.0Q65.92822265625 10 66.92822265625 10Q92.92822265625 10 111.8270263671875 28.5Q130.725830078125 47 130.92822265625 73ZM133.92822265625 627H130.92822265625Q130.725830078125 653 111.8270263671875 671.5Q92.92822265625 690 66.92822265625 690Q65.92822265625 690 61.3270263671875 690.0Q56.725830078125 690 54.725830078125 690L53.92822265625 700H133.92822265625Z" fill="#000000" transform="translate(535.655 286.368) scale(0.039 -0.039)"/>
<path d="M357.380859375 716.02392578125 663.50048828125 6H547.129638671875L323.820556640625 588.438720703125ZM142.380859375 73Q134.97607421875 53 139.97607421875 39.0Q144.97607421875 25 156.678466796875 17.5Q168.380859375 10 180.380859375 10H189.380859375V0H-16.07177734375V10Q-16.07177734375 10 -11.57177734375 10.0Q-7.07177734375 10 -7.07177734375 10Q15.92822265625 10 40.42822265625 24.5Q64.92822265625 39 80.92822265625 73ZM357.380859375 716.02392578125 364.559326171875 628.6181640625 114.5712890625 3H50.321044921875L307.3330078125 603.7138671875Q308.344970703125 605.535400390625 314.4521484375 619.4521484375Q320.559326171875 633.368896484375 328.464111328125 652.380859375Q336.368896484375 671.392822265625 342.273681640625 689.202392578125Q348.178466796875 707.011962890625 348.380859375 716.02392578125ZM486.439697265625 261.463623046875V227.415771484375H179.511474609375V261.463623046875ZM521.320068359375 73H634.488525390625Q649.893310546875 39 674.69091796875 24.5Q699.488525390625 10 722.488525390625 10Q722.488525390625 10 726.488525390625 10.0Q730.488525390625 10 730.488525390625 10V0H474.320068359375V10H483.320068359375Q502.5224609375 10 517.6236572265625 26.5Q532.724853515625 43 521.320068359375 73Z" fill="#000000" transform="translate(573.501 286.368) scale(0.039 -0.039)"/>
<path d="M364.26318359375 697V0H270.92822265625V697ZM617.21533203125 701V666.9521484375H17.97607421875V701ZM617.21533203125 669.9521484375V576.80859375L607.21533203125 577.80859375V592.78466796875Q607.21533203125 624.868408203125 586.3758544921875 645.4102783203125Q565.536376953125 665.9521484375 534.0478515625 666.9521484375V669.9521484375ZM617.21533203125 719V690L495.21533203125 701Q517.21533203125 701 541.71533203125 704.0Q566.21533203125 707 587.21533203125 711.0Q608.21533203125 715 617.21533203125 719ZM273.92822265625 73V0H193.92822265625V10Q193.92822265625 10 200.42822265625 10.0Q206.92822265625 10 206.92822265625 10Q232.92822265625 10 251.42822265625 28.5Q269.92822265625 47 270.92822265625 73ZM361.26318359375 73H364.26318359375Q365.26318359375 47 383.76318359375 28.5Q402.26318359375 10 428.26318359375 10Q428.26318359375 10 434.76318359375 10.0Q441.26318359375 10 441.26318359375 10V0H361.26318359375ZM101.1435546875 669.9521484375V666.9521484375Q68.857421875 665.9521484375 48.416748046875 645.4102783203125Q27.97607421875 624.868408203125 27.97607421875 592.78466796875V577.80859375L17.97607421875 576.80859375V669.9521484375ZM17.97607421875 719Q27.97607421875 715 48.47607421875 711.0Q68.97607421875 707 93.97607421875 704.0Q118.97607421875 701 139.97607421875 701L17.97607421875 690Z" fill="#000000" transform="translate(615.254 286.368) scale(0.039 -0.039)"/>
<path d="M698.26318359375 700V0H604.92822265625V700ZM224.26318359375 700V0H130.92822265625V700ZM613.92822265625 363.83349609375V329.78564453125H214.26318359375V363.83349609375ZM133.92822265625 73V0H53.92822265625V10Q53.92822265625 10 60.42822265625 10.0Q66.92822265625 10 66.92822265625 10Q92.92822265625 10 111.42822265625 28.5Q129.92822265625 47 130.92822265625 73ZM133.92822265625 627H130.92822265625Q129.92822265625 653 111.42822265625 671.5Q92.92822265625 690 66.92822265625 690Q66.92822265625 690 60.42822265625 690.0Q53.92822265625 690 53.92822265625 690V700H133.92822265625ZM221.26318359375 73H224.26318359375Q225.26318359375 47 243.76318359375 28.5Q262.26318359375 10 288.26318359375 10Q288.26318359375 10 294.26318359375 10.0Q300.26318359375 10 301.26318359375 10V0H221.26318359375ZM221.26318359375 627V700H301.26318359375V690Q300.26318359375 690 294.26318359375 690.0Q288.26318359375 690 288.26318359375 690Q262.26318359375 690 243.76318359375 671.5Q225.26318359375 653 224.26318359375 627ZM607.92822265625 73V0H527.92822265625V10Q528.92822265625 10 534.92822265625 10.0Q540.92822265625 10 540.92822265625 10Q566.92822265625 10 585.92822265625 28.5Q604.92822265625 47 604.92822265625 73ZM607.92822265625 627H604.92822265625Q604.92822265625 653 585.92822265625 671.5Q566.92822265625 690 540.92822265625 690Q540.92822265625 690 534.92822265625 690.0Q528.92822265625 690 527.92822265625 690V700H607.92822265625ZM695.26318359375 73H698.26318359375Q699.26318359375 47 717.76318359375 28.5Q736.26318359375 10 762.26318359375 10Q762.26318359375 10 768.76318359375 10.0Q775.26318359375 10 775.26318359375 10V0H695.26318359375ZM695.26318359375 627V700H775.26318359375V690Q775.26318359375 690 768.76318359375 690.0Q762.26318359375 690 762.26318359375 690Q736.26318359375 690 717.76318359375 671.5Q699.26318359375 653 698.26318359375 627Z" fill="#000000" transform="translate(653.851 286.368) scale(0.039 -0.039)"/>
<path d="M224.26318359375 700V0H130.92822265625V700ZM492.2392578125 35.0478515625 500.3349609375 0H221.26318359375V35.0478515625ZM451.26318359375 362.02392578125V327.97607421875H221.26318359375V362.02392578125ZM496.287109375 700V664.9521484375H221.26318359375V700ZM557.287109375 176.16748046875 503.3349609375 0H327.21533203125L363.21533203125 35.0478515625Q415.203369140625 35.0478515625 450.322509765625 52.559814453125Q485.441650390625 70.07177734375 508.465576171875 102.1968994140625Q531.489501953125 134.322021484375 547.3649526742788 176.16748046875ZM451.26318359375 329.97607421875V253.8564453125H441.26318359375V266.83251953125Q441.26318359375 292.297119140625 423.9237060546875 310.035400390625Q406.584228515625 327.773681640625 381.11962890625 327.97607421875V329.97607421875ZM451.26318359375 436.1435546875V360.02392578125H381.11962890625V362.02392578125Q406.584228515625 363.02392578125 424.02490234375 380.8634033203125Q441.465576171875 398.702880859375 441.26318359375 424.16748046875V436.1435546875ZM496.287109375 667.9521484375V575.80859375H486.287109375V591.78466796875Q486.287109375 623.07080078125 465.846435546875 644.011474609375Q445.40576171875 664.9521484375 413.11962890625 665.9521484375V667.9521484375ZM496.287109375 718V689L374.287109375 700Q396.287109375 700 420.787109375 703.0Q445.287109375 706 466.287109375 710.0Q487.287109375 714 496.287109375 718ZM133.92822265625 73V0H53.92822265625V10Q53.92822265625 10 60.42822265625 10.0Q66.92822265625 10 66.92822265625 10Q92.92822265625 10 111.42822265625 28.5Q129.92822265625 47 130.92822265625 73ZM133.92822265625 627H130.92822265625Q130.725830078125 653 111.78591537475586 671.5Q92.84600067138672 690 66.92822265625 690Q66.92822265625 690 60.8270263671875 690.0Q54.725830078125 690 54.725830078125 690L53.92822265625 700H133.92822265625Z" fill="#000000" transform="translate(700.141 286.368) scale(0.039 -0.039)"/>
<path d="M224.26318359375 700V0H130.92822265625V700ZM492.2392578125 35.0478515625 500.3349609375 0H221.26318359375V35.0478515625ZM557.287109375 176.16748046875 503.3349609375 0H327.21533203125L363.21533203125 35.0478515625Q415.203369140625 35.0478515625 450.322509765625 52.559814453125Q485.441650390625 70.07177734375 508.465576171875 102.1968994140625Q531.489501953125 134.322021484375 547.3649526742788 176.16748046875ZM133.92822265625 73V0H53.92822265625V10Q53.92822265625 10 60.42822265625 10.0Q66.92822265625 10 66.92822265625 10Q92.92822265625 10 111.42822265625 28.5Q129.92822265625 47 130.92822265625 73ZM133.92822265625 627H130.92822265625Q129.92822265625 653 111.42822265625 671.5Q92.92822265625 690 66.92822265625 690Q66.92822265625 690 60.42822265625 690.0Q53.92822265625 690 53.92822265625 690V700H133.92822265625ZM221.26318359375 627V700H301.26318359375V690Q300.26318359375 690 294.26318359375 690.0Q288.26318359375 690 288.26318359375 690Q262.26318359375 690 243.76318359375 671.5Q225.26318359375 653 224.26318359375 627Z" fill="#000000" transform="translate(737.198 286.368) scale(0.039 -0.039)"/>
<path d="M171.048828125 699 369.88232421875 331.5712890625 294.0947265625 303.655029296875 56.7138671875 699ZM381.048828125 322V0H287.7138671875V322ZM553.3818359375 699H620.048828125L372.83447265625 301.40478515625L331.97705078125 312ZM512.3818359375 628Q521.179443359375 642 517.1938999720983 656.5Q513.2083565848214 671 502.24811226981024 680.5Q491.2878679547991 690 477.33846609933033 690Q477.33846609933033 690 471.3601510184152 690.0Q465.3818359375 690 465.3818359375 690V700H692.846435546875V690H678.846435546875Q647.846435546875 690 620.7452392578125 672.0Q593.64404296875 654 577.846435546875 631ZM209.45361328125 628 96.916259765625 631Q82.916259765625 654 55.916259765625 672.0Q28.916259765625 690 -3.083740234375 690H-17.083740234375V700H257.251220703125V690Q257.251220703125 690 250.8524169921875 690.0Q244.45361328125 690 244.45361328125 690Q222.3546657986111 690 210.80294325086805 669.5Q199.251220703125 649 209.45361328125 628ZM289.916259765625 73V0H210.7138671875V10Q210.7138671875 10 216.7138671875 10.0Q222.7138671875 10 223.7138671875 10Q249.7138671875 10 268.2138671875 28.5Q286.7138671875 47 287.7138671875 73ZM378.048828125 73H381.048828125Q381.048828125 47 400.048828125 28.5Q419.048828125 10 445.048828125 10Q445.048828125 10 451.048828125 10.0Q457.048828125 10 457.048828125 10V0H378.048828125Z" fill="#000000" transform="translate(773.664 286.368) scale(0.039 -0.039)"/>
<line x1="52" y1="193.8" x2="259" y2="193.8" stroke="#000000" stroke-width="3.2" stroke-linecap="butt"/>
<line x1="904" y1="193.8" x2="1125" y2="193.8" stroke="#000000" stroke-width="3.2" stroke-linecap="butt"/>
</g>
</svg>
